<svg xmlns="http://www.w3.org/2000/svg" x="0px" y="0px"
width="50" height="50"
viewBox="0 0 226 226"
style=" fill:#000000;"><g fill="none" fill-rule="nonzero" stroke="none" stroke-width="1" stroke-linecap="butt" stroke-linejoin="miter" stroke-miterlimit="10" stroke-dasharray="" stroke-dashoffset="0" font-family="none" font-weight="none" font-size="none" text-anchor="none" style="mix-blend-mode: normal"><path d="M0,226v-226h226v226z" fill="none"></path><g fill="#ffffff"><path d="M113,9.04c-32.39922,0 -58.76,26.36078 -58.76,58.76c0,22.95313 14.03672,51.29141 27.75562,74.54469c13.70125,23.25328 27.4025,41.20969 27.4025,41.20969l3.60187,4.67891l3.60188,-4.67891c0,0 13.70125,-17.95641 27.4025,-41.20969c13.71891,-23.25328 27.75563,-51.59156 27.75563,-74.54469c0,-32.39922 -26.36078,-58.76 -58.76,-58.76zM113,18.08c27.50844,0 49.72,22.21156 49.72,49.72c0,19.05109 -13.08328,47.21281 -26.48437,69.95406c-11.61781,19.68672 -20.32234,31.02203 -23.23563,34.90641c-2.91328,-3.88438 -11.61781,-15.21969 -23.23562,-34.90641c-13.40109,-22.74125 -26.48437,-50.90297 -26.48437,-69.95406c0,-27.50844 22.21156,-49.72 49.72,-49.72zM113,45.2c-12.43,0 -22.6,10.17 -22.6,22.6c0,12.43 10.17,22.6 22.6,22.6c12.43,0 22.6,-10.17 22.6,-22.6c0,-12.43 -10.17,-22.6 -22.6,-22.6zM113,54.24c7.53922,0 13.56,6.02078 13.56,13.56c0,7.53922 -6.02078,13.56 -13.56,13.56c-7.53922,0 -13.56,-6.02078 -13.56,-13.56c0,-7.53922 6.02078,-13.56 13.56,-13.56zM32.98187,144.64l-25.84875,72.32h211.73375l-25.84875,-72.32h-34.58859c-1.76562,3.1075 -3.53125,6.12672 -5.29687,9.04h33.52922l19.35125,54.24h-186.02625l19.35125,-54.24h33.52922c-1.76562,-2.91328 -3.53125,-5.9325 -5.29687,-9.04z"></path></g></g></svg>